<?xml version="1.0" encoding="utf-8"?>
<!-- Generator: Adobe Illustrator 17.0.0, SVG Export Plug-In . SVG Version: 6.00 Build 0)  -->
<!DOCTYPE svg PUBLIC "-//W3C//DTD SVG 1.1//EN" "http://www.w3.org/Graphics/SVG/1.1/DTD/svg11.dtd">
<svg version="1.1" id="Layer_1" xmlns="http://www.w3.org/2000/svg" xmlns:xlink="http://www.w3.org/1999/xlink" x="0px" y="0px"
	 width="24px" height="24px" viewBox="0 0 24 24" enable-background="new 0 0 24 24" xml:space="preserve">
<g>
	<path d="M20.307,8.049c-0.005,0.001-0.012,0.001-0.02,0H13.69c-0.276,0-0.5-0.224-0.5-0.5V0.948c0-0.202,0.122-0.385,0.309-0.462
		c0.187-0.076,0.401-0.034,0.545,0.108l6.524,6.527c0.144,0.087,0.239,0.246,0.239,0.427C20.807,7.825,20.583,8.049,20.307,8.049z
		 M14.19,7.049h4.891L14.19,2.155V7.049z"/>
	<path d="M12.576,23.854c-2.389,0-4.777-0.004-7.165-0.009C3.636,23.84,2.772,22.979,2.77,21.21
		C2.761,15.027,2.761,8.845,2.763,2.663c0.001-1.444,0.793-2.439,1.969-2.476c1.705-0.054,3.413-0.043,5.155-0.033
		c0.697,0.004,1.4,0.008,2.111,0.008c0.276,0,0.5,0.224,0.5,0.5v8.163h8.222c0.276,0,0.5,0.224,0.5,0.5l0.008,6.327
		c0.005,1.83,0.011,3.661,0.01,5.491c-0.001,1.839-0.851,2.697-2.673,2.702C16.569,23.851,14.572,23.854,12.576,23.854z
		 M7.833,1.146c-1.029,0-2.05,0.01-3.07,0.042c-0.927,0.028-1,1.137-1,1.476C3.761,8.845,3.761,15.027,3.77,21.208
		c0.002,1.205,0.432,1.634,1.643,1.637c4.383,0.009,8.766,0.012,13.15,0.001c1.251-0.003,1.674-0.433,1.675-1.702
		c0.001-1.829-0.005-3.659-0.01-5.488l-0.008-5.83h-8.222c-0.276,0-0.5-0.224-0.5-0.5V1.161c-0.543-0.001-1.082-0.004-1.617-0.007
		C9.194,1.15,8.512,1.146,7.833,1.146z"/>
	<g>
		<path d="M8.027,21.39c-1.089,0-1.991-0.36-2.683-1.07c-0.687-0.708-1.034-1.622-1.034-2.717V16.03c0-1.088,0.339-2,1.007-2.71
			c0.676-0.719,1.56-1.083,2.628-1.083c1.103,0,1.988,0.298,2.634,0.884c0.66,0.603,0.985,1.421,0.969,2.434
			c-0.001,0.051-0.01,0.101-0.025,0.149c-0.068,0.204-0.271,0.374-0.485,0.374H9.491c-0.276,0-0.5-0.224-0.5-0.5
			c0-0.393-0.083-0.683-0.247-0.863c-0.15-0.168-0.419-0.253-0.799-0.253c-0.316,0-0.54,0.115-0.727,0.372
			C7,15.136,6.894,15.524,6.894,16.018V17.6c0,0.497,0.11,0.885,0.339,1.185c0.198,0.261,0.45,0.382,0.794,0.382
			c0.346,0,0.591-0.078,0.729-0.232c0.152-0.171,0.229-0.459,0.229-0.857c0-0.276,0.224-0.5,0.5-0.5h1.54
			c0.212,0,0.401,0.134,0.472,0.334c0.018,0.051,0.039,0.138,0.04,0.191c0.016,0.996-0.3,1.805-0.939,2.402
			C9.969,21.092,9.104,21.39,8.027,21.39z M7.945,13.237c-0.792,0-1.413,0.251-1.899,0.769C5.55,14.531,5.31,15.193,5.31,16.03
			v1.572c0,0.838,0.246,1.499,0.752,2.021c0.502,0.516,1.145,0.767,1.965,0.767c0.827,0,1.444-0.201,1.887-0.616
			c0.333-0.311,0.53-0.705,0.598-1.197H9.949c-0.064,0.419-0.214,0.761-0.447,1.022c-0.335,0.376-0.831,0.567-1.475,0.567
			c-0.653,0-1.203-0.269-1.59-0.776c-0.36-0.474-0.543-1.076-0.543-1.79v-1.582c0-0.702,0.173-1.298,0.514-1.77
			c0.372-0.515,0.904-0.786,1.537-0.786c0.676,0,1.194,0.196,1.542,0.583c0.243,0.269,0.399,0.615,0.466,1.033h0.569
			c-0.068-0.502-0.271-0.902-0.617-1.218C9.451,13.447,8.791,13.237,7.945,13.237z"/>
		<path d="M16.496,21.275h-1.633c-0.214,0-0.404-0.137-0.474-0.339l-2.688-7.924c-0.052-0.153-0.026-0.321,0.067-0.452
			s0.245-0.209,0.406-0.209h1.677c0.223,0,0.418,0.147,0.48,0.36l1.349,4.652l1.353-4.652c0.063-0.214,0.258-0.36,0.48-0.36h1.676
			c0.161,0,0.313,0.078,0.406,0.209s0.119,0.299,0.067,0.452l-2.693,7.924C16.9,21.139,16.709,21.275,16.496,21.275z M15.221,20.275
			h0.916l2.354-6.924h-0.603l-1.712,5.888c-0.125,0.428-0.869,0.426-0.994,0l-1.707-5.888h-0.604L15.221,20.275z"/>
	</g>
</g>
</svg>
