<svg width="61.45" height="36.695" viewBox="0 0 61.45 36.695" xmlns="http://www.w3.org/2000/svg"><g id="svgGroup" stroke-linecap="round" fill-rule="evenodd" font-size="9pt" stroke="#000" stroke-width="0.25mm" fill="black" style="stroke:#000;stroke-width:0.25mm;fill:black"><path d="M 53.809 0.513 L 61.45 0.513 L 49.317 36.206 L 41.065 36.206 L 28.955 0.513 L 36.597 0.513 L 43.311 21.753 Q 43.451 22.194 43.739 23.267 A 140.378 140.378 0 0 1 43.872 23.767 A 158.799 158.799 0 0 1 44.266 25.287 A 185.779 185.779 0 0 1 44.666 26.892 A 42 42 0 0 1 44.912 27.957 Q 45.016 28.433 45.091 28.848 A 17.298 17.298 0 0 1 45.215 29.614 Q 45.362 28.54 45.74 26.904 Q 46.118 25.269 46.497 23.792 A 140.499 140.499 0 0 1 46.668 23.13 Q 46.858 22.402 46.979 21.981 A 15.014 15.014 0 0 1 47.046 21.753 L 53.809 0.513 Z M 25.855 28.516 L 25.855 34.863 A 24.483 24.483 0 0 1 22.488 35.983 A 21.383 21.383 0 0 1 21.192 36.267 A 24.286 24.286 0 0 1 18.756 36.588 A 32.905 32.905 0 0 1 16.04 36.694 A 21.923 21.923 0 0 1 12.178 36.373 Q 9.984 35.981 8.204 35.107 A 12.324 12.324 0 0 1 6.97 34.412 A 13.552 13.552 0 0 1 1.763 28.143 A 16.422 16.422 0 0 1 1.709 28.015 A 21.612 21.612 0 0 1 0.351 23.103 A 29.895 29.895 0 0 1 0 18.408 Q 0 14.356 1.099 10.986 Q 2.198 7.617 4.322 5.151 A 14.234 14.234 0 0 1 9.571 1.343 A 16.213 16.213 0 0 1 13.609 0.222 A 21.385 21.385 0 0 1 16.748 0 A 21.829 21.829 0 0 1 22.083 0.671 A 26.965 26.965 0 0 1 27.198 2.515 L 24.756 8.667 Q 22.754 7.715 20.728 7.007 A 12.592 12.592 0 0 0 18.007 6.372 A 11.035 11.035 0 0 0 16.748 6.299 A 9.554 9.554 0 0 0 14.701 6.51 A 7.587 7.587 0 0 0 12.903 7.141 Q 11.231 7.984 10.095 9.57 A 10.364 10.364 0 0 0 8.941 11.687 A 13.596 13.596 0 0 0 8.374 13.403 A 17.612 17.612 0 0 0 7.909 16.028 A 23.502 23.502 0 0 0 7.788 18.457 A 25.445 25.445 0 0 0 7.943 21.348 Q 8.11 22.802 8.455 24.044 A 13.624 13.624 0 0 0 8.728 24.915 A 9.54 9.54 0 0 0 9.771 27.044 A 7.357 7.357 0 0 0 11.646 28.992 A 7.253 7.253 0 0 0 14.152 30.107 Q 15.148 30.351 16.312 30.389 A 13.383 13.383 0 0 0 16.748 30.396 A 19.93 19.93 0 0 0 21.106 29.907 Q 23.291 29.419 25.855 28.516 Z" vector-effect="non-scaling-stroke"/></g></svg>