<?xml version="1.0" encoding="UTF-8"?>
<svg xmlns="http://www.w3.org/2000/svg" xmlns:xlink="http://www.w3.org/1999/xlink" width="53pt" height="44pt" viewBox="0 0 53 44" version="1.1">
<g id="surface1">
<path style=" stroke:none;fill-rule:nonzero;fill:rgb(95.686275%,49.803922%,19.215686%);fill-opacity:1;" d="M 42.125 24.847656 L 45.011719 24.847656 L 45.011719 27.695312 L 42.125 27.695312 Z M 42.125 24.847656 "/>
<path style=" stroke:none;fill-rule:nonzero;fill:rgb(92.156863%,41.568627%,18.431373%);fill-opacity:1;" d="M 44.507812 21.820312 L 44.507812 14.882812 C 44.507812 14.09375 43.738281 13.457031 42.792969 13.457031 L 6.777344 13.457031 C 4.851562 13.457031 3.296875 14.777344 3.351562 16.386719 L 3.351562 21.820312 Z M 44.507812 21.820312 "/>
<path style=" stroke:none;fill-rule:nonzero;fill:rgb(49.019608%,65.882353%,100%);fill-opacity:1;" d="M 24.238281 19.410156 L 6.777344 19.410156 L 6.777344 2.019531 C 6.777344 1.261719 7.519531 0.644531 8.433594 0.644531 L 10.207031 0.644531 L 11.921875 0.945312 L 13.636719 0.644531 L 22.269531 0.644531 C 23.1875 0.644531 23.925781 1.261719 23.925781 2.019531 L 23.925781 4.203125 L 24.238281 4.203125 Z M 24.238281 19.410156 "/>
<path style=" stroke:none;fill-rule:nonzero;fill:rgb(43.921569%,57.254902%,100%);fill-opacity:1;" d="M 22.269531 0.644531 L 19.890625 0.644531 C 20.804688 0.644531 21.546875 1.261719 21.546875 2.019531 L 21.546875 19.410156 L 23.925781 19.410156 L 23.925781 2.019531 C 23.925781 1.261719 23.1875 0.644531 22.269531 0.644531 Z M 22.269531 0.644531 "/>
<path style=" stroke:none;fill-rule:nonzero;fill:rgb(21.176471%,36.862745%,49.019608%);fill-opacity:1;" d="M 10.207031 0.644531 L 13.636719 0.644531 L 13.636719 19.410156 L 10.207031 19.410156 Z M 10.207031 0.644531 "/>
<path style=" stroke:none;fill-rule:nonzero;fill:rgb(100%,86.27451%,40.392157%);fill-opacity:1;" d="M 19.667969 7.761719 L 17.894531 7.761719 C 17.4375 7.761719 17.066406 7.457031 17.066406 7.074219 L 17.066406 4.179688 C 17.066406 3.800781 17.4375 3.492188 17.894531 3.492188 L 19.667969 3.492188 C 20.128906 3.492188 20.496094 3.800781 20.496094 4.179688 L 20.496094 7.074219 C 20.496094 7.457031 20.128906 7.761719 19.667969 7.761719 Z M 19.667969 7.761719 "/>
<path style=" stroke:none;fill-rule:nonzero;fill:rgb(58.431373%,83.921569%,64.313725%);fill-opacity:1;" d="M 41.078125 19.410156 L 41.078125 4.203125 C 41.078125 3.8125 40.691406 3.492188 40.21875 3.492188 L 24.785156 3.492188 C 24.3125 3.492188 23.929688 3.8125 23.929688 4.203125 L 23.929688 19.410156 L 27.359375 19.410156 L 32.503906 17.730469 L 37.648438 19.410156 Z M 41.078125 19.410156 "/>
<path style=" stroke:none;fill-rule:nonzero;fill:rgb(80%,95.686275%,62.352941%);fill-opacity:1;" d="M 37.648438 19.410156 L 37.648438 8.167969 C 37.648438 8 37.507812 7.859375 37.3125 7.820312 C 36.632812 7.695312 36.015625 7.195312 35.863281 6.613281 C 35.820312 6.453125 35.644531 6.339844 35.445312 6.339844 L 29.558594 6.339844 C 29.359375 6.339844 29.1875 6.453125 29.144531 6.617188 C 28.992188 7.183594 28.386719 7.695312 27.6875 7.820312 C 27.496094 7.855469 27.355469 8.003906 27.355469 8.167969 L 27.355469 19.410156 "/>
<path style=" stroke:none;fill-rule:nonzero;fill:rgb(58.431373%,83.921569%,64.313725%);fill-opacity:1;" d="M 32.898438 13.507812 C 31.980469 13.324219 31.054688 13.800781 30.835938 14.566406 C 30.621094 15.328125 31.191406 16.097656 32.113281 16.277344 C 33.03125 16.457031 33.957031 15.984375 34.175781 15.21875 C 34.390625 14.453125 33.820312 13.6875 32.898438 13.507812 Z M 32.898438 13.507812 "/>
<path style=" stroke:none;fill-rule:nonzero;fill:rgb(47.058824%,76.078431%,64.313725%);fill-opacity:1;" d="M 40.21875 3.492188 L 37.839844 3.492188 C 38.3125 3.492188 38.695312 3.8125 38.695312 4.203125 L 38.695312 19.410156 L 41.078125 19.410156 L 41.078125 4.203125 C 41.078125 3.8125 40.691406 3.492188 40.21875 3.492188 Z M 40.21875 3.492188 "/>
<path style=" stroke:none;fill-rule:nonzero;fill:rgb(98.823529%,59.215686%,30.196078%);fill-opacity:1;" d="M 44.507812 41.933594 C 44.507812 42.71875 43.738281 43.355469 42.792969 43.355469 L 6.777344 43.355469 C 4.882812 43.355469 3.347656 42.082031 3.347656 40.507812 L 3.347656 16.304688 L 3.351562 16.386719 C 3.402344 17.9375 4.980469 19.152344 6.851562 19.152344 L 42.792969 19.152344 C 43.738281 19.152344 44.507812 19.789062 44.507812 20.578125 Z M 44.507812 41.933594 "/>
<path style=" stroke:none;fill-rule:nonzero;fill:rgb(95.686275%,49.803922%,19.215686%);fill-opacity:1;" d="M 42.792969 19.152344 L 40.410156 19.152344 C 41.359375 19.152344 42.125 19.789062 42.125 20.578125 L 42.125 41.933594 C 42.125 42.71875 41.359375 43.355469 40.410156 43.355469 L 42.792969 43.355469 C 43.738281 43.355469 44.507812 42.71875 44.507812 41.933594 L 44.507812 20.578125 C 44.507812 19.789062 43.738281 19.152344 42.792969 19.152344 Z M 42.792969 19.152344 "/>
<path style=" stroke:none;fill-rule:nonzero;fill:rgb(100%,86.27451%,40.392157%);fill-opacity:1;" d="M 14.523438 40.507812 L 9.320312 40.507812 C 8.863281 40.507812 8.492188 40.199219 8.492188 39.820312 L 8.492188 38.347656 C 8.492188 37.96875 8.863281 37.660156 9.320312 37.660156 L 14.523438 37.660156 C 14.980469 37.660156 15.351562 37.96875 15.351562 38.347656 L 15.351562 39.820312 C 15.351562 40.199219 14.980469 40.507812 14.523438 40.507812 Z M 14.523438 40.507812 "/>
<path style=" stroke:none;fill-rule:nonzero;fill:rgb(95.686275%,49.803922%,19.215686%);fill-opacity:1;" d="M 44.507812 24.847656 L 46.222656 24.847656 C 48.117188 24.847656 49.652344 26.121094 49.652344 27.695312 L 49.652344 33.390625 C 49.652344 34.960938 48.117188 36.238281 46.222656 36.238281 L 34.21875 36.238281 C 33.269531 36.238281 32.503906 35.597656 32.503906 34.8125 L 32.503906 29.117188 C 32.503906 28.332031 33.269531 27.695312 34.21875 27.695312 L 44.507812 27.695312 Z M 44.507812 24.847656 "/>
<path style=" stroke:none;fill-rule:nonzero;fill:rgb(92.156863%,41.568627%,18.431373%);fill-opacity:1;" d="M 46.222656 24.847656 L 44.507812 24.847656 L 44.507812 24.902344 C 46.082031 25.160156 47.269531 26.3125 47.269531 27.695312 L 47.269531 33.390625 C 47.269531 34.960938 45.734375 36.238281 43.839844 36.238281 L 46.222656 36.238281 C 48.117188 36.238281 49.652344 34.960938 49.652344 33.390625 L 49.652344 27.695312 C 49.652344 26.121094 48.117188 24.847656 46.222656 24.847656 Z M 46.222656 24.847656 "/>
<path style=" stroke:none;fill-rule:nonzero;fill:rgb(100%,86.27451%,40.392157%);fill-opacity:1;" d="M 38.203125 30.621094 C 37.3125 30.355469 36.332031 30.738281 36.007812 31.476562 C 35.6875 32.214844 36.148438 33.03125 37.039062 33.300781 C 37.929688 33.566406 38.910156 33.183594 39.234375 32.445312 C 39.554688 31.707031 39.09375 30.890625 38.203125 30.621094 Z M 38.203125 30.621094 "/>
<path style=" stroke:none;fill-rule:nonzero;fill:rgb(0%,0%,0%);fill-opacity:1;" d="M 16.128906 39.820312 L 16.128906 38.347656 C 16.128906 37.613281 15.410156 37.015625 14.523438 37.015625 L 9.320312 37.015625 C 8.4375 37.015625 7.71875 37.613281 7.71875 38.347656 L 7.71875 39.820312 C 7.71875 40.554688 8.4375 41.152344 9.320312 41.152344 L 14.523438 41.152344 C 15.410156 41.152344 16.128906 40.554688 16.128906 39.820312 Z M 9.269531 39.820312 L 9.269531 38.347656 C 9.269531 38.324219 9.292969 38.304688 9.320312 38.304688 L 14.523438 38.304688 C 14.554688 38.304688 14.578125 38.324219 14.578125 38.347656 L 14.578125 39.820312 C 14.578125 39.84375 14.554688 39.863281 14.523438 39.863281 L 9.320312 39.863281 C 9.292969 39.863281 9.269531 39.84375 9.269531 39.820312 Z M 9.269531 39.820312 "/>
<path style=" stroke:none;fill-rule:nonzero;fill:rgb(0%,0%,0%);fill-opacity:1;" d="M 37.648438 29.898438 C 36.273438 29.898438 35.15625 30.824219 35.15625 31.964844 C 35.15625 33.105469 36.273438 34.035156 37.648438 34.035156 C 39.019531 34.035156 40.136719 33.105469 40.136719 31.964844 C 40.136719 30.824219 39.019531 29.898438 37.648438 29.898438 Z M 37.648438 32.746094 C 37.128906 32.746094 36.707031 32.394531 36.707031 31.964844 C 36.707031 31.535156 37.128906 31.1875 37.648438 31.1875 C 38.164062 31.1875 38.585938 31.535156 38.585938 31.964844 C 38.585938 32.394531 38.164062 32.746094 37.648438 32.746094 Z M 37.648438 32.746094 "/>
<path style=" stroke:none;fill-rule:nonzero;fill:rgb(0%,0%,0%);fill-opacity:1;" d="M 46.222656 24.203125 L 45.28125 24.203125 L 45.28125 14.882812 C 45.28125 13.742188 44.164062 12.8125 42.792969 12.8125 L 41.851562 12.8125 L 41.851562 4.203125 C 41.851562 3.457031 41.121094 2.847656 40.21875 2.847656 L 24.785156 2.847656 C 24.757812 2.847656 24.730469 2.851562 24.703125 2.851562 L 24.703125 2.019531 C 24.703125 0.90625 23.613281 0 22.273438 0 L 8.433594 0 C 7.09375 0 6.003906 0.90625 6.003906 2.019531 L 6.003906 4.339844 C 6.003906 4.695312 6.351562 4.984375 6.777344 4.984375 C 7.207031 4.984375 7.554688 4.695312 7.554688 4.339844 L 7.554688 2.019531 C 7.554688 1.617188 7.949219 1.289062 8.433594 1.289062 L 9.433594 1.289062 L 9.433594 18.507812 L 7.554688 18.507812 L 7.554688 6.917969 C 7.554688 6.5625 7.207031 6.273438 6.777344 6.273438 C 6.351562 6.273438 6.003906 6.5625 6.003906 6.917969 L 6.003906 12.871094 C 5.15625 13.003906 4.378906 13.34375 3.761719 13.871094 C 3 14.523438 2.578125 15.375 2.574219 16.285156 C 2.574219 16.292969 2.574219 16.296875 2.574219 16.304688 L 2.574219 40.507812 C 2.574219 42.433594 4.460938 44 6.777344 44 L 10.371094 44 C 10.800781 44 11.148438 43.710938 11.148438 43.355469 C 11.148438 43 10.800781 42.710938 10.371094 42.710938 L 6.777344 42.710938 C 5.316406 42.710938 4.125 41.722656 4.125 40.507812 L 4.125 18.984375 C 4.835938 19.46875 5.734375 19.769531 6.707031 19.792969 C 6.730469 19.796875 42.792969 19.796875 42.792969 19.796875 C 43.308594 19.796875 43.730469 20.148438 43.730469 20.578125 L 43.730469 27.050781 L 34.21875 27.050781 C 32.84375 27.050781 31.726562 27.976562 31.726562 29.117188 L 31.726562 34.8125 C 31.726562 35.953125 32.84375 36.882812 34.21875 36.882812 L 43.730469 36.882812 L 43.730469 41.933594 C 43.730469 42.363281 43.308594 42.710938 42.792969 42.710938 L 13.476562 42.710938 C 13.046875 42.710938 12.699219 43 12.699219 43.355469 C 12.699219 43.710938 13.046875 44 13.476562 44 L 42.792969 44 C 44.164062 44 45.28125 43.070312 45.28125 41.933594 L 45.28125 36.882812 L 46.222656 36.882812 C 48.539062 36.882812 50.425781 35.316406 50.425781 33.390625 L 50.425781 27.695312 C 50.425781 25.769531 48.539062 24.203125 46.222656 24.203125 Z M 4.125 16.367188 C 4.105469 15.765625 4.371094 15.199219 4.875 14.769531 C 5.195312 14.5 5.578125 14.304688 6.003906 14.199219 L 6.003906 18.394531 C 4.941406 18.109375 4.15625 17.308594 4.125 16.367188 Z M 24.785156 4.136719 L 40.21875 4.136719 C 40.265625 4.136719 40.300781 4.167969 40.300781 4.203125 L 40.300781 18.507812 L 38.421875 18.507812 L 38.421875 8.167969 C 38.421875 7.695312 38.035156 7.292969 37.480469 7.191406 C 37.085938 7.117188 36.707031 6.804688 36.621094 6.476562 C 36.5 6.023438 36.003906 5.695312 35.445312 5.695312 L 29.558594 5.695312 C 28.992188 5.695312 28.507812 6.015625 28.386719 6.476562 C 28.296875 6.804688 27.917969 7.121094 27.523438 7.191406 C 26.976562 7.292969 26.582031 7.703125 26.582031 8.167969 L 26.582031 18.507812 L 24.703125 18.507812 L 24.703125 4.203125 C 24.703125 4.167969 24.742188 4.136719 24.785156 4.136719 Z M 36.871094 18.507812 L 28.132812 18.507812 L 28.132812 8.386719 C 28.90625 8.164062 29.554688 7.625 29.824219 6.984375 L 35.183594 6.984375 C 35.449219 7.625 36.097656 8.164062 36.871094 8.386719 Z M 23.152344 2.019531 L 23.152344 18.507812 L 14.414062 18.507812 L 14.414062 1.289062 L 22.269531 1.289062 C 22.757812 1.289062 23.152344 1.617188 23.152344 2.019531 Z M 10.984375 18.507812 L 10.984375 1.289062 L 12.863281 1.289062 L 12.863281 18.507812 Z M 42.792969 18.507812 L 41.851562 18.507812 L 41.851562 14.101562 L 42.792969 14.101562 C 43.308594 14.101562 43.730469 14.453125 43.730469 14.882812 L 43.730469 18.660156 C 43.441406 18.5625 43.125 18.507812 42.792969 18.507812 Z M 48.875 33.390625 C 48.875 34.605469 47.683594 35.59375 46.222656 35.59375 L 34.21875 35.59375 C 33.699219 35.59375 33.277344 35.242188 33.277344 34.8125 L 33.277344 29.117188 C 33.277344 28.6875 33.699219 28.339844 34.21875 28.339844 L 45.363281 28.339844 C 45.792969 28.339844 46.140625 28.050781 46.140625 27.695312 C 46.140625 27.339844 45.792969 27.050781 45.363281 27.050781 L 45.28125 27.050781 L 45.28125 25.492188 L 46.222656 25.492188 C 47.683594 25.492188 48.875 26.480469 48.875 27.695312 Z M 48.875 33.390625 "/>
<path style=" stroke:none;fill-rule:nonzero;fill:rgb(0%,0%,0%);fill-opacity:1;" d="M 32.503906 12.8125 C 31.128906 12.8125 30.011719 13.742188 30.011719 14.882812 C 30.011719 16.023438 31.128906 16.949219 32.503906 16.949219 C 33.875 16.949219 34.992188 16.023438 34.992188 14.882812 C 34.992188 13.742188 33.875 12.8125 32.503906 12.8125 Z M 32.503906 15.660156 C 31.984375 15.660156 31.5625 15.3125 31.5625 14.882812 C 31.5625 14.453125 31.984375 14.101562 32.503906 14.101562 C 33.019531 14.101562 33.441406 14.453125 33.441406 14.882812 C 33.441406 15.3125 33.019531 15.660156 32.503906 15.660156 Z M 32.503906 15.660156 "/>
<path style=" stroke:none;fill-rule:nonzero;fill:rgb(0%,0%,0%);fill-opacity:1;" d="M 32.503906 11.253906 C 32.929688 11.253906 33.277344 10.964844 33.277344 10.609375 L 33.277344 9.1875 C 33.277344 8.832031 32.929688 8.542969 32.503906 8.542969 C 32.074219 8.542969 31.726562 8.832031 31.726562 9.1875 L 31.726562 10.609375 C 31.726562 10.964844 32.074219 11.253906 32.503906 11.253906 Z M 32.503906 11.253906 "/>
<path style=" stroke:none;fill-rule:nonzero;fill:rgb(0%,0%,0%);fill-opacity:1;" d="M 17.894531 8.40625 L 19.667969 8.40625 C 20.554688 8.40625 21.273438 7.808594 21.273438 7.074219 L 21.273438 4.179688 C 21.273438 3.445312 20.554688 2.847656 19.667969 2.847656 L 17.894531 2.847656 C 17.011719 2.847656 16.292969 3.445312 16.292969 4.179688 L 16.292969 7.074219 C 16.292969 7.808594 17.011719 8.40625 17.894531 8.40625 Z M 17.84375 4.179688 C 17.84375 4.15625 17.867188 4.136719 17.894531 4.136719 L 19.667969 4.136719 C 19.699219 4.136719 19.722656 4.15625 19.722656 4.179688 L 19.722656 7.074219 C 19.722656 7.097656 19.699219 7.117188 19.667969 7.117188 L 17.894531 7.117188 C 17.867188 7.117188 17.84375 7.097656 17.84375 7.074219 Z M 17.84375 4.179688 "/>
</g>
</svg>
